<svg xmlns="http://www.w3.org/2000/svg" xmlns:xlink="http://www.w3.org/1999/xlink" width="17.192" height="18.18" viewBox="0 0 17.192 18.18">
  <defs>
    <linearGradient id="linear-gradient" x1="0.5" x2="0.5" y2="1" gradientUnits="objectBoundingBox">
      <stop offset="0" stop-color="#7e4eff"/>
      <stop offset="1" stop-color="#260aff"/>
    </linearGradient>
  </defs>
  <g id="Group_30" data-name="Group 30" transform="translate(-51.825 -182)">
    <g id="Group_29" data-name="Group 29">
      <g id="Group_22" data-name="Group 22" transform="translate(59.338 190.007)">
        <rect id="Rectangle_19" data-name="Rectangle 19" width="2.165" height="2.165" fill="url(#linear-gradient)"/>
      </g>
      <g id="Group_24" data-name="Group 24" transform="translate(51.825 182)">
        <g id="Group_23" data-name="Group 23" transform="translate(0)">
          <path id="Path_17" data-name="Path 17" d="M21.908,6.822V.748a3.258,3.258,0,0,0-5.336,2.512c0,.1.005.2.014.3a3.595,3.595,0,0,0-2.036,5.533,3.6,3.6,0,0,0,2.036,5.535c-.009.1-.014.2-.014.3a3.258,3.258,0,0,0,5.336,2.512V12.182h0v-.824h-.49v.824H20.233v-.824h-.824V10.172h.824v-.49h-.824V8.5h.824v-.49h-.824V6.822h.824V6h1.186v.824h.49Z" transform="translate(-13.905)" fill="url(#linear-gradient)"/>
        </g>
      </g>
      <g id="Group_26" data-name="Group 26" transform="translate(61.014 182)">
        <g id="Group_25" data-name="Group 25" transform="translate(0)">
          <path id="Path_18" data-name="Path 18" d="M280.7,7.035a3.6,3.6,0,0,0-2.682-3.479c.009-.1.014-.2.014-.3A3.258,3.258,0,0,0,272.7.748V6.822h.49V6h1.186v.824h.824V8.008h-.824V8.5h.824V9.683h-.824v.49h.824v1.186h-.824v.824h-1.186v-.824h-.49v6.074a3.258,3.258,0,0,0,5.336-2.512c0-.1,0-.2-.014-.3a3.6,3.6,0,0,0,2.036-5.535A3.576,3.576,0,0,0,280.7,7.035Z" transform="translate(-272.696)" fill="url(#linear-gradient)"/>
        </g>
      </g>
    </g>
  </g>
</svg>
