<svg xmlns="http://www.w3.org/2000/svg" xmlns:xlink="http://www.w3.org/1999/xlink" width="15.255" height="15.688" viewBox="0 0 15.255 15.688">
  <defs>
    <linearGradient id="linear-gradient" x1="0.5" x2="0.5" y2="1" gradientUnits="objectBoundingBox">
      <stop offset="0" stop-color="#7e4eff"/>
      <stop offset="1" stop-color="#260aff"/>
    </linearGradient>
  </defs>
  <path id="write-svgrepo-com" d="M7.092,10.073,11.716,5.45a.115.115,0,0,1,.163,0L14.33,7.9a.115.115,0,0,1,0,.163L9.707,12.688a1.161,1.161,0,0,1-.821.34H7.39a.638.638,0,0,1-.638-.638v-1.5A1.161,1.161,0,0,1,7.092,10.073Zm8.856-5.106L14.813,3.831a1.046,1.046,0,0,0-1.479,0L12.167,5l2.615,2.615,1.167-1.167A1.046,1.046,0,0,0,15.949,4.967ZM12.5,10.936a.522.522,0,0,1-.523.523h-.306L10.629,12.5h1.352a.523.523,0,0,1,0,1.046H4.138a.523.523,0,0,1,0-1.046H6.229V11.459H4.138a.523.523,0,1,1,0-1.046H6.3a1.551,1.551,0,0,1,.392-.676l.37-.37H4.138a.523.523,0,1,1,0-1.046H8.1L9.151,7.275H4.138a.523.523,0,0,1,0-1.046H10.2l1.046-1.046h-7.1a.523.523,0,0,1,0-1.046h8.146l.68-.676A1.542,1.542,0,0,1,14.6,3.1V2.046A1.046,1.046,0,0,0,13.551,1H2.046A1.046,1.046,0,0,0,1,2.046v13.6a1.046,1.046,0,0,0,1.046,1.046h11.5A1.046,1.046,0,0,0,14.6,15.642v-7.1L12.439,10.7A.509.509,0,0,1,12.5,10.936Z" transform="translate(-1 -1)" fill="url(#linear-gradient)"/>
</svg>
