<svg xmlns="http://www.w3.org/2000/svg" width="107.948" height="22.623" viewBox="0 0 107.948 22.623">
  <path id="Path_14" data-name="Path 14" d="M9.2-12.006a4.885,4.885,0,0,1,2.743.792,5.243,5.243,0,0,1,1.877,2.231,7.706,7.706,0,0,1,.67,3.291,7.463,7.463,0,0,1-.67,3.255A5.064,5.064,0,0,1,11.95-.279,5.042,5.042,0,0,1,9.2.476,4.8,4.8,0,0,1,7.087.013a3.735,3.735,0,0,1-1.5-1.243V2.914A1.724,1.724,0,0,1,5,4.279a2.248,2.248,0,0,1-1.536.512,2.314,2.314,0,0,1-1.609-.549,1.8,1.8,0,0,1-.609-1.4v-12.8a1.916,1.916,0,0,1,.573-1.451,2.145,2.145,0,0,1,1.548-.549,2.234,2.234,0,0,1,1.5.488,1.845,1.845,0,0,1,.646,1.292,3.5,3.5,0,0,1,1.5-1.341A4.86,4.86,0,0,1,9.2-12.006ZM7.879-2.766A2.061,2.061,0,0,0,9.6-3.522a3.432,3.432,0,0,0,.6-2.17,3.679,3.679,0,0,0-.609-2.279,2.055,2.055,0,0,0-1.731-.792,2.068,2.068,0,0,0-1.731.78A3.578,3.578,0,0,0,5.514-5.74a3.479,3.479,0,0,0,.609,2.206A2.109,2.109,0,0,0,7.879-2.766Zm9.8,3.194a2.392,2.392,0,0,1-1.548-.5,1.809,1.809,0,0,1-.622-1.5V-9.958a1.809,1.809,0,0,1,.622-1.5,2.392,2.392,0,0,1,1.548-.5,2.392,2.392,0,0,1,1.548.5,1.809,1.809,0,0,1,.622,1.5v8.386a1.809,1.809,0,0,1-.622,1.5A2.392,2.392,0,0,1,17.679.428Zm0-14.091a2.532,2.532,0,0,1-1.743-.573,1.936,1.936,0,0,1-.646-1.524,1.9,1.9,0,0,1,.646-1.511,2.567,2.567,0,0,1,1.743-.561,2.577,2.577,0,0,1,1.731.561,1.883,1.883,0,0,1,.658,1.511,1.936,1.936,0,0,1-.646,1.524A2.532,2.532,0,0,1,17.679-13.663Zm11.775,1.658a3.887,3.887,0,0,1,3.194,1.28A6.053,6.053,0,0,1,33.7-6.837v5.266a1.886,1.886,0,0,1-.585,1.463,2.255,2.255,0,0,1-1.585.536,2.255,2.255,0,0,1-1.585-.536,1.886,1.886,0,0,1-.585-1.463V-6.642a2.561,2.561,0,0,0-.378-1.56,1.345,1.345,0,0,0-1.134-.488,2,2,0,0,0-1.548.622,2.368,2.368,0,0,0-.573,1.67v4.827a1.886,1.886,0,0,1-.585,1.463,2.255,2.255,0,0,1-1.585.536A2.255,2.255,0,0,1,21.97-.109a1.886,1.886,0,0,1-.585-1.463v-8.435a1.8,1.8,0,0,1,.609-1.4,2.278,2.278,0,0,1,1.585-.549,2.075,2.075,0,0,1,1.475.512A1.749,1.749,0,0,1,25.6-10.1a4.157,4.157,0,0,1,1.633-1.414A4.992,4.992,0,0,1,29.454-12.006ZM41.2.476a7.519,7.519,0,0,1-3.474-.768,5.512,5.512,0,0,1-2.316-2.182A6.513,6.513,0,0,1,34.6-5.789a6.446,6.446,0,0,1,.817-3.3,5.473,5.473,0,0,1,2.3-2.158,7.6,7.6,0,0,1,3.486-.756,7.6,7.6,0,0,1,3.486.756,5.473,5.473,0,0,1,2.3,2.158,6.446,6.446,0,0,1,.817,3.3,6.513,6.513,0,0,1-.817,3.315,5.529,5.529,0,0,1-2.3,2.182A7.5,7.5,0,0,1,41.2.476Zm0-3.242q2.316,0,2.316-3.023T41.2-8.812q-2.316,0-2.316,3.023T41.2-2.766ZM54.588.476a6.364,6.364,0,0,1-4.632-1.658,6,6,0,0,1-1.707-4.51,6.521,6.521,0,0,1,.829-3.315,5.624,5.624,0,0,1,2.328-2.218,7.312,7.312,0,0,1,3.425-.78,8.053,8.053,0,0,1,2.048.268,6.479,6.479,0,0,1,1.8.756,1.545,1.545,0,0,1,.756,1.414,2.01,2.01,0,0,1-.353,1.231,1.091,1.091,0,0,1-.914.475,2.3,2.3,0,0,1-.707-.11,4.747,4.747,0,0,1-.756-.329,8.213,8.213,0,0,0-.829-.329,2.46,2.46,0,0,0-.756-.11q-2.413,0-2.413,2.95a3.474,3.474,0,0,0,.622,2.231,2.171,2.171,0,0,0,1.792.768,2.579,2.579,0,0,0,.768-.11,5.349,5.349,0,0,0,.792-.329q.488-.219.792-.329a1.967,1.967,0,0,1,.67-.11,1.091,1.091,0,0,1,.914.475,2.01,2.01,0,0,1,.353,1.231,1.806,1.806,0,0,1-.2.841,1.357,1.357,0,0,1-.536.573A7.736,7.736,0,0,1,54.588.476ZM65.8.476a6.364,6.364,0,0,1-4.632-1.658,6,6,0,0,1-1.707-4.51,6.521,6.521,0,0,1,.829-3.315,5.624,5.624,0,0,1,2.328-2.218,7.312,7.312,0,0,1,3.425-.78,8.053,8.053,0,0,1,2.048.268,6.479,6.479,0,0,1,1.8.756,1.545,1.545,0,0,1,.756,1.414A2.01,2.01,0,0,1,70.3-8.337a1.091,1.091,0,0,1-.914.475,2.3,2.3,0,0,1-.707-.11,4.747,4.747,0,0,1-.756-.329,8.213,8.213,0,0,0-.829-.329,2.46,2.46,0,0,0-.756-.11q-2.413,0-2.413,2.95a3.474,3.474,0,0,0,.622,2.231,2.171,2.171,0,0,0,1.792.768,2.579,2.579,0,0,0,.768-.11,5.349,5.349,0,0,0,.792-.329q.488-.219.792-.329a1.967,1.967,0,0,1,.67-.11,1.09,1.09,0,0,1,.914.475,2.01,2.01,0,0,1,.353,1.231,1.806,1.806,0,0,1-.2.841,1.357,1.357,0,0,1-.536.573A7.736,7.736,0,0,1,65.8.476Zm13.6-12.482a3.755,3.755,0,0,1,3.12,1.28A6.158,6.158,0,0,1,83.55-6.837v5.266a1.886,1.886,0,0,1-.585,1.463A2.255,2.255,0,0,1,81.38.428,2.255,2.255,0,0,1,79.8-.109a1.886,1.886,0,0,1-.585-1.463V-6.935q0-1.755-1.511-1.755a2,2,0,0,0-1.548.622,2.368,2.368,0,0,0-.573,1.67v4.827a1.886,1.886,0,0,1-.585,1.463,2.255,2.255,0,0,1-1.585.536,2.255,2.255,0,0,1-1.585-.536,1.886,1.886,0,0,1-.585-1.463V-15.077a1.8,1.8,0,0,1,.609-1.4,2.314,2.314,0,0,1,1.609-.549,2.248,2.248,0,0,1,1.536.512,1.724,1.724,0,0,1,.585,1.365v4.876a4.222,4.222,0,0,1,1.633-1.292A5.29,5.29,0,0,1,79.406-12.006ZM87.061.428a2.275,2.275,0,0,1-1.694-.683,2.307,2.307,0,0,1-.67-1.682,2.307,2.307,0,0,1,.67-1.682A2.275,2.275,0,0,1,87.061-4.3a2.246,2.246,0,0,1,1.67.683,2.307,2.307,0,0,1,.67,1.682,2.307,2.307,0,0,1-.67,1.682A2.246,2.246,0,0,1,87.061.428Zm5.778,0a2.392,2.392,0,0,1-1.548-.5,1.809,1.809,0,0,1-.622-1.5V-9.958a1.809,1.809,0,0,1,.622-1.5,2.392,2.392,0,0,1,1.548-.5,2.392,2.392,0,0,1,1.548.5,1.809,1.809,0,0,1,.622,1.5v8.386a1.809,1.809,0,0,1-.622,1.5A2.392,2.392,0,0,1,92.838.428Zm0-14.091a2.532,2.532,0,0,1-1.743-.573,1.936,1.936,0,0,1-.646-1.524,1.9,1.9,0,0,1,.646-1.511,2.567,2.567,0,0,1,1.743-.561,2.577,2.577,0,0,1,1.731.561,1.883,1.883,0,0,1,.658,1.511,1.936,1.936,0,0,1-.646,1.524A2.532,2.532,0,0,1,92.838-13.663ZM102.59.476a7.519,7.519,0,0,1-3.474-.768A5.512,5.512,0,0,1,96.8-2.474a6.513,6.513,0,0,1-.817-3.315,6.446,6.446,0,0,1,.817-3.3,5.473,5.473,0,0,1,2.3-2.158,7.6,7.6,0,0,1,3.486-.756,7.6,7.6,0,0,1,3.486.756,5.473,5.473,0,0,1,2.3,2.158,6.446,6.446,0,0,1,.817,3.3,6.513,6.513,0,0,1-.817,3.315,5.529,5.529,0,0,1-2.3,2.182A7.5,7.5,0,0,1,102.59.476Zm0-3.242q2.316,0,2.316-3.023T102.59-8.812q-2.316,0-2.316,3.023T102.59-2.766Z" transform="translate(-1.248 17.832)" fill="#432df0"/>
</svg>
