<svg xmlns="http://www.w3.org/2000/svg" xmlns:xlink="http://www.w3.org/1999/xlink" width="34.594" height="34.594" viewBox="0 0 34.594 34.594">
  <defs>
    <clipPath id="clip-path">
      <rect width="34.594" height="34.594" fill="none"/>
    </clipPath>
    <linearGradient id="linear-gradient" x1="0.13" y1="0.179" x2="0.903" y2="0.8" gradientUnits="objectBoundingBox">
      <stop offset="0" stop-color="#7e4eff"/>
      <stop offset="1" stop-color="#260aff"/>
    </linearGradient>
  </defs>
  <g id="Group_20" data-name="Group 20" transform="translate(0 -652.436)">
    <g id="Group_19" data-name="Group 19" transform="translate(0 645)">
      <g id="Repeat_Grid_1" data-name="Repeat Grid 1" transform="translate(0 7.436)" clip-path="url(#clip-path)">
        <g transform="translate(0 -7.436)">
          <path id="Path_13" data-name="Path 13" d="M17.3,0A17.3,17.3,0,1,1,0,17.3,17.3,17.3,0,0,1,17.3,0Z" transform="translate(0 7.436)" fill="url(#linear-gradient)"/>
        </g>
      </g>
      <path id="Path_24" data-name="Path 24" d="M10.034-14.529A5.877,5.877,0,0,1,13.3-13.6a6.154,6.154,0,0,1,2.233,2.625,9.07,9.07,0,0,1,.8,3.9,8.782,8.782,0,0,1-.8,3.857A6.041,6.041,0,0,1,13.311-.667a6,6,0,0,1-3.277.9,5.613,5.613,0,0,1-2.7-.638A4.477,4.477,0,0,1,5.51-2.175V3.741A1.5,1.5,0,0,1,5.017,4.93a1.9,1.9,0,0,1-1.3.435A1.879,1.879,0,0,1,2.393,4.9a1.572,1.572,0,0,1-.508-1.218V-12.76a1.657,1.657,0,0,1,.479-1.247,1.775,1.775,0,0,1,1.29-.464,1.827,1.827,0,0,1,1.305.464,1.631,1.631,0,0,1,.493,1.247v.725a4.449,4.449,0,0,1,1.842-1.842A5.657,5.657,0,0,1,10.034-14.529ZM9.077-2.581a3.25,3.25,0,0,0,2.668-1.174A5.128,5.128,0,0,0,12.7-7.076a5.418,5.418,0,0,0-.957-3.422,3.2,3.2,0,0,0-2.668-1.218,3.224,3.224,0,0,0-2.682,1.189,5.35,5.35,0,0,0-.943,3.393A5.3,5.3,0,0,0,6.395-3.77,3.224,3.224,0,0,0,9.077-2.581Z" transform="translate(8.797 30)" fill="#fff"/>
    </g>
  </g>
</svg>
